<svg width="20" height="20" viewBox="0 0 32 32" fill="none" xmlns="http://www.w3.org/2000/svg">
<circle cx="16" cy="16" r="16" fill="#0066FF" fill-opacity="0.5"/>
<path d="M13.9833 19.3333C13.6778 19.3333 13.4282 19.2366 13.2347 19.0431C13.0412 18.8495 12.9444 18.6 12.9444 18.2944V16.8889H14.4111V17.8667H17.5889V16.2472H13.9833C13.6981 16.2472 13.4537 16.1454 13.25 15.9417C13.0463 15.738 12.9444 15.4935 12.9444 15.2083V13.0389C12.9444 12.7333 13.0412 12.4838 13.2347 12.2903C13.4282 12.0968 13.6778 12 13.9833 12H18.0167C18.3222 12 18.5718 12.0968 18.7653 12.2903C18.9588 12.4838 19.0556 12.7333 19.0556 13.0389V14.4444H17.5889V13.4667H14.4111V15.0861H18.0167C18.3019 15.0861 18.5463 15.188 18.75 15.3917C18.9537 15.5954 19.0556 15.8398 19.0556 16.125V18.2944C19.0556 18.6 18.9588 18.8495 18.7653 19.0431C18.5718 19.2366 18.3222 19.3333 18.0167 19.3333H13.9833ZM21.9278 19.3333C21.6222 19.3333 21.3727 19.2366 21.1792 19.0431C20.9856 18.8495 20.8889 18.6 20.8889 18.2944V16.8889H22.3556V17.8667H25.5333V16.2472H21.9278C21.6426 16.2472 21.3981 16.1454 21.1944 15.9417C20.9907 15.738 20.8889 15.4935 20.8889 15.2083V13.0389C20.8889 12.7333 20.9856 12.4838 21.1792 12.2903C21.3727 12.0968 21.6222 12 21.9278 12H25.9611C26.2667 12 26.5162 12.0968 26.7097 12.2903C26.9032 12.4838 27 12.7333 27 13.0389V14.4444H25.5333V13.4667H22.3556V15.0861H25.9611C26.2463 15.0861 26.4907 15.188 26.6944 15.3917C26.8981 15.5954 27 15.8398 27 16.125V18.2944C27 18.6 26.9032 18.8495 26.7097 19.0431C26.5162 19.2366 26.2667 19.3333 25.9611 19.3333H21.9278ZM6.03889 19.3333C5.73333 19.3333 5.4838 19.2366 5.29028 19.0431C5.09676 18.8495 5 18.6 5 18.2944V13.0389C5 12.7333 5.09676 12.4838 5.29028 12.2903C5.4838 12.0968 5.73333 12 6.03889 12H10.0722C10.3778 12 10.6273 12.0968 10.8208 12.2903C11.0144 12.4838 11.1111 12.7333 11.1111 13.0389V14.4444H9.64444V13.4667H6.46667V17.8667H9.64444V16.8889H11.1111V18.2944C11.1111 18.6 11.0144 18.8495 10.8208 19.0431C10.6273 19.2366 10.3778 19.3333 10.0722 19.3333H6.03889Z" fill="#111111"/>
</svg>
