<svg width="20" height="20" viewBox="0 0 32 32" fill="none" xmlns="http://www.w3.org/2000/svg">
<circle cx="16" cy="16" r="16" fill="url(#paint0_linear_40_5)"/>
<path d="M13.625 17.7L14.525 14.825L12.15 12.975H15.05L16 10L16.925 12.975H19.85L17.475 14.825L18.35 17.7L16 15.925L13.625 17.7ZM10.1 27V19.4C9.35 18.6167 8.8125 17.7583 8.4875 16.825C8.1625 15.8917 8 14.95 8 14C8 11.7333 8.76667 9.83333 10.3 8.3C11.8333 6.76667 13.7333 6 16 6C18.2667 6 20.1667 6.76667 21.7 8.3C23.2333 9.83333 24 11.7333 24 14C24 14.95 23.8375 15.8917 23.5125 16.825C23.1875 17.7583 22.65 18.6167 21.9 19.4V27L16 25.025L10.1 27ZM16 20.5C17.8167 20.5 19.3542 19.8708 20.6125 18.6125C21.8708 17.3542 22.5 15.8167 22.5 14C22.5 12.1833 21.8708 10.6458 20.6125 9.3875C19.3542 8.12917 17.8167 7.5 16 7.5C14.1833 7.5 12.6458 8.12917 11.3875 9.3875C10.1292 10.6458 9.5 12.1833 9.5 14C9.5 15.8167 10.1292 17.3542 11.3875 18.6125C12.6458 19.8708 14.1833 20.5 16 20.5ZM11.6 24.9L16 23.525L20.4 24.9V20.625C19.7333 21.1083 19.0167 21.4583 18.25 21.675C17.4833 21.8917 16.7333 22 16 22C15.2667 22 14.5167 21.8917 13.75 21.675C12.9833 21.4583 12.2667 21.1083 11.6 20.625V24.9Z" fill="#111111"/>
<defs>
<linearGradient id="paint0_linear_40_5" x1="-2.0364e-07" y1="16.1301" x2="32" y2="16.1301" gradientUnits="userSpaceOnUse">
<stop stop-color="#AA9A65"/>
<stop offset="0.2723" stop-color="#BEA86D"/>
<stop offset="0.547019" stop-color="#CDBA80"/>
<stop offset="0.831234" stop-color="#C1AC72"/>
</linearGradient>
</defs>
</svg>
