<svg width="20" height="20" viewBox="0 0 32 32" fill="none" xmlns="http://www.w3.org/2000/svg">
<circle cx="16" cy="16" r="16" fill="#FF0000" fill-opacity="0.5"/>
<path d="M15.8375 15.9742C15.2407 15.051 14.8098 14.2874 14.2112 12.8494C13.1991 10.4173 20.3686 8.21982 17.4597 4C18.7202 6.91665 12.9387 8.71716 12.402 11.1475C11.9088 13.3802 15.8343 15.9742 15.8375 15.9742Z" fill="black"/>
<path d="M15.9732 11.6022C15.8581 13.0452 17.3039 13.8152 17.3451 14.8654C17.3786 15.723 16.4811 16.4367 16.4811 16.4367C16.4811 16.4367 18.1092 16.1309 18.618 14.8214C19.1823 13.3697 17.5243 12.3778 17.6926 11.2153C17.8535 10.1033 21.2945 8.03967 21.2945 8.03967C21.2945 8.03967 16.2313 8.36054 15.9732 11.6022Z" fill="black"/>
<path d="M20.87 16.0631C21.9165 15.8376 22.8002 16.4775 22.8002 17.2159C22.8002 18.8771 20.4002 20.447 20.4002 20.447C20.4002 20.447 24.1167 20.0221 24.1167 17.2929C24.1167 15.4901 22.291 15.0405 20.87 16.0631Z" fill="black"/>
<path d="M19.1071 17.4039C19.1071 17.4039 20.2663 16.6109 20.5744 16.3148C17.7315 16.8942 11.2418 16.9712 11.2418 16.4692C11.2418 16.0067 13.3334 15.53 13.3334 15.53C13.3334 15.53 8.69461 15.4663 8.69461 16.7796C8.69507 18.1506 14.769 18.2473 19.1071 17.4039Z" fill="black"/>
<path d="M18.3939 18.6506C15.7046 19.5115 10.7459 19.2355 12.2136 18.0832C11.5013 18.0832 10.4397 18.6341 10.4397 19.1636C10.4397 20.2293 15.7995 21.0498 19.7672 19.4931L18.3939 18.6506Z" fill="black"/>
<path d="M12.8737 20.4668C11.8982 20.4668 11.2652 21.0695 11.2652 21.5119C11.2652 22.8801 17.0903 23.0181 19.3987 21.6269L17.9319 20.6932C16.2079 21.4225 11.8781 21.521 12.8737 20.4668Z" fill="black"/>
<path d="M23.2834 22.7595C23.2834 22.2246 22.6536 21.9707 22.4262 21.8492C23.756 24.9286 9.10945 24.6893 9.10945 22.8728C9.10945 22.4584 10.1853 22.0536 11.1836 22.2471L10.3365 21.7662C8.34946 21.466 7 22.303 7 22.98C6.99954 26.1318 23.2834 25.9801 23.2834 22.7595Z" fill="black"/>
<path d="M25 23.8257C22.5247 26.1722 16.25 27.027 9.94092 25.5781C16.2496 28.1592 24.9688 26.7071 25 23.8257Z" fill="black"/>
</svg>
