<svg width="20" height="20" viewBox="0 0 32 32" fill="none" xmlns="http://www.w3.org/2000/svg">
<circle cx="16" cy="16" r="16" fill="#F1EB54" fill-opacity="0.5"/>
<path d="M6.46665 22.1C6.03734 22.1 5.68556 21.9578 5.41132 21.6735C5.13711 21.3892 5 21.0245 5 20.5793V17.1128H6.98704V20.0397H11.5684V10H13.5555V20.5793C13.5555 21.029 13.4184 21.3948 13.1441 21.6769C12.8699 21.959 12.5182 22.1 12.0889 22.1H6.46665ZM18.9649 22.1C18.5062 22.1 18.1274 21.945 17.8284 21.635C17.5294 21.325 17.3799 20.9322 17.3799 20.4567V18.1757H19.367V20.0397H25.0129V16.8757H18.8072C18.4142 16.8757 18.0781 16.7309 17.7988 16.4414C17.5196 16.1518 17.3799 15.7965 17.3799 15.3755V11.6433C17.3799 11.1678 17.5294 10.775 17.8284 10.465C18.1274 10.155 18.5062 10 18.9649 10H25.4151C25.8737 10 26.2525 10.155 26.5515 10.465C26.8505 10.775 27 11.1678 27 11.6433V13.9243H25.0129V12.0603H19.367V15.2243H25.5728C25.9657 15.2243 26.3018 15.3691 26.5811 15.6586C26.8604 15.9482 27 16.2966 27 16.704V20.4567C27 20.9322 26.8505 21.325 26.5515 21.635C26.2525 21.945 25.8737 22.1 25.4151 22.1H18.9649Z" fill="#111111"/>
</svg>
